<?xml version="1.0" encoding="UTF-8"?>
<svg width="106px" height="106px" viewBox="0 0 106 106" version="1.1" xmlns="http://www.w3.org/2000/svg" xmlns:xlink="http://www.w3.org/1999/xlink">
    <!-- Generator: Sketch 55.2 (78181) - https://sketchapp.com -->
    <title>Artboard</title>
    <desc>Created with Sketch.</desc>
    <g id="Artboard" stroke="none" stroke-width="1" fill="none" fill-rule="evenodd">
        <g id="logo-stroke" transform="translate(8.750000, 6.000000)">
            <polygon id="stroke" fill="#FFFFFF" points="0.6638 25.7097 44.2558 0.5417 87.8488 25.7097 87.8488 93.2817 0.6638 93.2817"></polygon>
            <polygon id="bg" stroke="#FFFFFF" stroke-width="12" points="0.6638 26.1987 44.2558 1.0307 87.8488 26.1987 87.8488 93.7707 0.6638 93.7707"></polygon>
            <g id="assets/logo/primary">
                <path d="M33.4193418,57.5219177 L43.9899518,51.4193362 L-6.24113475e-05,26.0216624 L-6.24113475e-05,51.1029106 C3.29650496,49.3260596 7.44998014,48.4011234 12.2057248,48.4011234 C22.5603915,48.4011234 29.113583,52.798627 33.4193418,57.5219177" id="Fill-1" fill="#1CC29F"></path>
                <path d="M14.0108482,92.529566 C18.4170894,92.529566 21.7392454,91.2301617 21.7392454,87.9073816 C21.7392454,84.5128284 17.4777986,83.2128 12.2052879,81.9127716 C8.2802383,80.9073248 3.77538723,79.8987574 0.000124822695,77.9964596 L0.000124822695,84.4404312 C3.17811064,89.5687716 8.45062128,92.529566 14.0108482,92.529566" id="Fill-4" fill="#1CC29F"></path>
                <polygon id="Fill-6" fill="#52595F" points="87.9799035 76.8164482 87.9799035 26.0217248 43.9898894 51.4193986"></polygon>
                <polygon id="Fill-9" fill="#ACE4D6" points="87.9792794 26.0218496 43.9898894 0.624175887 -0.000124822695 26.0218496 43.9898894 51.4188993"></polygon>
                <path d="M43.9896397,51.4185248 L33.4190298,57.5217305 L22.0882496,64.0643121 C19.1929872,61.7619574 15.5107177,60.1011915 12.1336397,60.1011915 C8.01636312,60.1011915 5.9218383,61.4723688 5.9218383,64.0012766 C5.9218383,66.9264965 8.78714326,68.320766 12.7571291,69.4510355 C13.5903206,69.6881986 14.4690723,69.9147518 15.3833986,70.1400567 C24.1228596,72.2345816 35.8231149,74.9070355 35.8231149,86.8956312 C35.8231149,89.4126809 35.2932426,91.9209929 34.1323915,94.209617 L87.9790298,94.209617 L87.9790298,76.8161986 L43.9896397,51.4185248 Z" id="Fill-12" fill="#373B3F"></path>
                <path d="M15.3833986,70.1401191 C14.4690723,69.9148142 13.5903206,69.688261 12.7571291,69.4510979 C8.78714326,68.3208284 5.9218383,66.9265589 5.9218383,64.001339 C5.9218383,61.4724312 8.01636312,60.1012539 12.1336397,60.1012539 C15.5107177,60.1012539 19.1929872,61.7620199 22.0882496,64.0643745 L33.4190298,57.5217929 C29.1126468,52.7985021 22.5600794,48.4003745 12.2054128,48.4003745 C7.44904397,48.4003745 3.29681702,49.3253106 0.00024964539,51.1027858 L0.00024964539,76.816261 L0.00024964539,77.9964596 C3.77488794,79.8987574 8.28036312,80.9067007 12.2054128,81.9121475 C17.4772993,83.2128 21.7393702,84.5122043 21.7393702,87.9073816 C21.7393702,91.2301617 18.4165901,92.529566 14.010973,92.529566 C8.45012199,92.529566 3.17761135,89.5687716 0.00024964539,84.4404312 L0.00024964539,94.2096794 L34.1323915,94.2096794 C35.2932426,91.9210553 35.8231149,89.4127433 35.8231149,86.8956936 C35.8231149,74.9070979 24.1228596,72.2340199 15.3833986,70.1401191" id="Fill-14" fill="#FFFFFF"></path>
            </g>
        </g>
    </g>
</svg>