<svg xmlns="http://www.w3.org/2000/svg" xmlns:xlink="http://www.w3.org/1999/xlink" width="401" height="419" viewBox="0 0 401 419">
    <defs>
        <path id="a" d="M51.157 418.587C30.662 414.97 12.03 402.605 0 383.518v-28.824c17.174 8.51 37.673 13.018 55.532 17.515 23.986 5.817 43.378 11.63 43.378 26.816 0 11.195-8.582 17.253-21.384 19.562H51.157zM200.147 0l200.005 115.473v303.114H158.996c2.716-7.768 3.993-15.917 3.993-24.087 0-53.623-53.234-65.579-92.998-74.945-4.159-1.008-8.158-2.02-11.949-3.082-18.062-5.055-31.1-11.291-31.1-24.375 0-11.311 9.531-17.444 28.264-17.444 13.91 0 28.95 6.098 41.45 14.892l52.326-29.629c-19.601-19.871-48.728-37.599-93.45-37.599-21.641 0-40.533 4.138-55.532 12.088V115.473L200.147 0z"/>
    </defs>
    <g fill="none" fill-rule="evenodd">
        <mask id="b" fill="#fff">
            <use xlink:href="#a"/>
        </mask>
        <use fill="#FFF" xlink:href="#a"/>
        <g mask="url(#b)">
            <path fill="#ACE4D6" d="M36.5 137.124L49 115.473l-25 14.433z"/>
            <path fill="#1CC29F" d="M36.5 137.124L49 115.473v28.867z"/>
            <path fill="#ACE4D6" d="M61.501 151.558l12.5-21.651-25 14.434zM61.501 151.558l12.5-21.651v28.868z"/>
            <path fill="#D7F1EB" d="M61.501 122.69l-12.5 21.65v-28.868z"/>
            <path fill="#1CC29F" d="M61.501 122.69l-12.5 21.65 25-14.434z"/>
            <path fill="#ACE4D6" d="M86.502 108.255l-12.5 21.651 25-14.434z"/>
            <path fill="#D7F1EB" d="M86.502 108.255l12.5-21.65v28.867z"/>
            <path fill="#D7F1EB" d="M86.502 108.255l12.5-21.65-25 14.433z"/>
            <path fill="#1CC29F" d="M86.502 108.255l-12.5 21.651v-28.868z"/>
            <path fill="#ACE4D6" d="M61.501 93.821l-12.5 21.651 25-14.434z"/>
            <path fill="#1CC29F" d="M61.501 93.821l12.5-21.65v28.867z"/>
            <path fill="#ACE4D6" d="M61.501 93.821l12.5-21.65-25 14.433zM61.501 93.821l-12.5 21.651V86.604z"/>
            <path fill="#1CC29F" d="M86.502 79.387l-12.5 21.651 25-14.434z"/>
            <path fill="#ACE4D6" d="M86.502 79.387l-12.5 21.651V72.17zM61.501 122.69l12.5-21.652v28.868z"/>
            <path fill="#1CC29F" d="M61.501 122.69l12.5-21.652-25 14.434z"/>
            <path fill="#ACE4D6" d="M111.502 64.954l12.5-21.651V72.17z"/>
            <path fill="#D7F1EB" d="M111.502 64.954l-12.5 21.65 25-14.433z"/>
            <path fill="#D7F1EB" d="M111.502 64.954l-12.5 21.65V57.738z"/>
            <path fill="#1CC29F" d="M111.502 64.954l12.5-21.651-25 14.434z"/>
            <path fill="#D7F1EB" d="M86.502 79.387l12.5-21.65v28.867z"/>
            <path fill="#1CC29F" d="M86.502 79.387l12.5-21.65-25 14.433z"/>
            <path fill="#ACE4D6" d="M36.5 108.255L24 129.906v-28.868z"/>
            <path fill="#ACE4D6" d="M36.5 108.255L49 86.605l-25 14.433z"/>
            <path fill="#ACE4D6" d="M36.5 108.255L49 86.605v28.867z"/>
            <path fill="#D7F1EB" d="M36.5 108.255L24 129.906l25-14.434z"/>
            <path fill="#ACE4D6" d="M-1 115.472l12.5 7.218 12.501-21.651z"/>
            <path fill="#D7F1EB" d="M11.5 122.69L24 101.037v28.868z"/>
            <path fill="#ACE4D6" d="M174.003 14.434l12.501 7.217L199.004 0z"/>
            <path fill="#ACE4D6" d="M186.504 21.651l-12.5 21.651V14.434zM186.504 21.651l-12.5 21.651 25-14.434zM199.004 0l-12.5 21.65 12.5 7.218zM161.504 36.085l12.5-21.65-25 14.433z"/>
            <path fill="#ACE4D6" d="M161.504 36.085l12.5-21.65v28.867zM86.502 137.124l12.5-21.651-25 14.433z"/>
            <path fill="#D7F1EB" d="M86.502 137.124l-12.5 21.65v-28.868z"/>
            <path fill="#D7F1EB" d="M86.502 137.124l-12.5 21.65 25-14.434z"/>
            <path fill="#1CC29F" d="M86.502 137.124l12.5-21.651v28.867z"/>
            <path fill="#ACE4D6" d="M111.503 151.558l12.5-21.651-25 14.434z"/>
            <path fill="#1CC29F" d="M111.503 151.558l-12.5 21.65v-28.867z"/>
            <path fill="#ACE4D6" d="M111.503 151.558l-12.5 21.65 25-14.433zM111.503 151.558l12.5-21.651v28.868zM86.502 165.992l12.5-21.651-25 14.434zM86.502 165.992l12.5-21.651v28.868z"/>
            <path fill="#D7F1EB" d="M111.503 122.69l-12.5 21.65v-28.868z"/>
            <path fill="#1CC29F" d="M111.503 122.69l-12.5 21.65 25-14.434z"/>
            <path fill="#ACE4D6" d="M136.503 108.255l-12.5 21.651 25-14.434z"/>
            <path fill="#D7F1EB" d="M136.503 108.255l12.5-21.65v28.867z"/>
            <path fill="#D7F1EB" d="M136.503 108.255l12.5-21.65-25 14.433z"/>
            <path fill="#1CC29F" d="M136.503 108.255l-12.5 21.651v-28.868z"/>
            <path fill="#ACE4D6" d="M111.503 93.821l-12.5 21.651 25-14.434z"/>
            <path fill="#1CC29F" d="M111.503 93.821l12.5-21.65v28.867z"/>
            <path fill="#ACE4D6" d="M111.503 93.821l12.5-21.65-25 14.433zM111.503 93.821l-12.5 21.651V86.604z"/>
            <path fill="#1CC29F" d="M136.503 79.388l-12.5 21.65 25-14.433z"/>
            <path fill="#ACE4D6" d="M136.503 79.388l-12.5 21.65V72.172zM111.503 122.69l12.5-21.652v28.868z"/>
            <path fill="#1CC29F" d="M111.503 122.69l12.5-21.652-25 14.434z"/>
            <path fill="#D7F1EB" d="M161.504 64.954l12.5-21.651V72.17zM161.504 64.954l-12.5 21.65 25-14.433z"/>
            <path fill="#D7F1EB" d="M161.504 64.954l-12.5 21.65V57.738z"/>
            <path fill="#1CC29F" d="M161.504 64.954l12.5-21.651-25 14.434z"/>
            <path fill="#ACE4D6" d="M136.503 50.52l12.5-21.652v28.869z"/>
            <path fill="#ACE4D6" d="M136.503 50.52l-12.5 21.65 25-14.434z"/>
            <path fill="#ACE4D6" d="M136.503 50.52l-12.5 21.65V43.303z"/>
            <path fill="#ACE4D6" d="M136.503 50.52l12.5-21.652-25 14.435z"/>
            <path fill="#1CC29F" d="M136.503 79.388l12.5-21.651v28.868z"/>
            <path fill="#1CC29F" d="M136.503 79.388l12.5-21.651-25 14.434z"/>
            <path fill="#D7F1EB" d="M161.504 36.085l-12.5 21.651 25-14.434z"/>
            <path fill="#1CC29F" d="M161.504 36.085l-12.5 21.651V28.868zM261.506 180.426l12.5-21.651v28.868z"/>
            <path fill="#ACE4D6" d="M261.506 180.426l12.5-21.651-25 14.434zM286.507 165.992l-12.5 21.651v-28.868z"/>
            <path fill="#D7F1EB" d="M311.507 151.558l-12.5 21.651v-28.868z"/>
            <path fill="#1CC29F" d="M311.507 151.558l12.5-21.65-25 14.433z"/>
            <path fill="#ACE4D6" d="M286.506 137.124l12.5-21.651v28.868z"/>
            <path fill="#ACE4D6" d="M286.506 137.124l-12.5 21.651 25-14.434z"/>
            <path fill="#ACE4D6" d="M286.506 137.124l-12.5 21.651v-28.868z"/>
            <path fill="#ACE4D6" d="M286.506 137.124l12.5-21.651-25 14.434z"/>
            <path fill="#D7F1EB" d="M286.507 165.992l12.5-21.65v28.867z"/>
            <path fill="#1CC29F" d="M286.507 165.992l12.5-21.65-25 14.433z"/>
            <path fill="#D7F1EB" d="M311.507 122.69l-12.5 21.65 25-14.433z"/>
            <path fill="#D7F1EB" d="M311.507 122.69l-12.5 21.65v-28.867z"/>
            <path fill="#1CC29F" d="M136.503 137.124l-12.5 21.65v-28.868z"/>
            <path fill="#D7F1EB" d="M136.503 137.124l12.5-21.651-25 14.433z"/>
            <path fill="#1CC29F" d="M136.503 137.124l12.5-21.651v28.867z"/>
            <path fill="#D7F1EB" d="M136.503 137.124l-12.5 21.65 25-14.434z"/>
            <path fill="#ACE4D6" d="M161.504 151.558l-12.5 21.65v-28.867zM161.504 151.558l12.5-21.651-25 14.434z"/>
            <path fill="#D7F1EB" d="M161.504 151.558l12.5-21.651v28.868z"/>
            <path fill="#ACE4D6" d="M161.504 151.558l-12.5 21.65 25-14.433zM161.504 122.69l-12.5 21.65v-28.868z"/>
            <path fill="#D7F1EB" d="M161.504 122.69l-12.5 21.65 25-14.434zM136.503 165.992l12.5-21.651-25 14.434z"/>
            <path fill="#1CC29F" d="M136.503 165.992l12.5-21.651v28.868z"/>
            <path fill="#ACE4D6" d="M186.504 108.256l-12.5 21.65 25-14.433z"/>
            <path fill="#D7F1EB" d="M186.504 108.256l12.5-21.651v28.868z"/>
            <path fill="#ACE4D6" d="M186.504 108.256l12.5-21.651-25 14.434z"/>
            <path fill="#1CC29F" d="M186.504 108.256l-12.5 21.65V101.04z"/>
            <path fill="#ACE4D6" d="M161.504 93.822l-12.5 21.65 25-14.433z"/>
            <path fill="#D7F1EB" d="M161.504 93.822l12.5-21.651v28.868z"/>
            <path fill="#ACE4D6" d="M161.504 93.822l12.5-21.651-25 14.434zM161.504 93.822l-12.5 21.65V86.606z"/>
            <path fill="#D7F1EB" d="M186.504 79.388l-12.5 21.65 25-14.433z"/>
            <path fill="#ACE4D6" d="M186.504 79.388l-12.5 21.65V72.172z"/>
            <path fill="#1CC29F" d="M161.504 122.69l12.5-21.652v28.868z"/>
            <path fill="#D7F1EB" d="M161.504 122.69l12.5-21.652-25 14.434z"/>
            <path fill="#ACE4D6" d="M211.505 64.954l-12.5 21.65 25-14.433z"/>
            <path fill="#D7F1EB" d="M211.505 64.954l12.5-21.651V72.17z"/>
            <path fill="#D7F1EB" d="M211.505 64.954l12.5-21.651-25 14.434z"/>
            <path fill="#1CC29F" d="M211.505 64.954l-12.5 21.65V57.738z"/>
            <path fill="#ACE4D6" d="M186.504 50.52l-12.5 21.65 25-14.434z"/>
            <path fill="#ACE4D6" d="M186.504 50.52l12.5-21.652v28.869z"/>
            <path fill="#D7F1EB" d="M186.504 50.52l12.5-21.652-25 14.435z"/>
            <path fill="#ACE4D6" d="M186.504 50.52l-12.5 21.65V43.303z"/>
            <path fill="#D7F1EB" d="M211.505 36.085l-12.5 21.651 25-14.434z"/>
            <path fill="#ACE4D6" d="M211.505 36.085l-12.5 21.651V28.868zM186.504 79.388l12.5-21.651v28.868z"/>
            <path fill="#D7F1EB" d="M186.504 79.388l12.5-21.651-25 14.434z"/>
            <path fill="#ACE4D6" d="M111.503 180.426l12.5-21.651v28.868z"/>
            <path fill="#D7F1EB" d="M111.503 180.426l12.5-21.651-25 14.434z"/>
            <path fill="#ACE4D6" d="M136.503 165.992l-12.5 21.65v-28.867z"/>
            <path fill="#D7F1EB" d="M161.504 180.426l12.5-21.651-25 14.434z"/>
            <path fill="#1CC29F" d="M161.504 180.426l12.5-21.651v28.868z"/>
            <path fill="#D7F1EB" d="M186.504 165.992l-12.5 21.65v-28.867z"/>
            <path fill="#ACE4D6" d="M211.505 151.558l-12.5 21.65 25-14.433z"/>
            <path fill="#D7F1EB" d="M211.505 151.558l12.5-21.651v28.868z"/>
            <path fill="#D7F1EB" d="M211.505 151.558l12.5-21.651-25 14.434z"/>
            <path fill="#1CC29F" d="M211.505 151.558l-12.5 21.65v-28.867z"/>
            <path fill="#ACE4D6" d="M186.504 137.124l-12.5 21.65 25-14.434z"/>
            <path fill="#1CC29F" d="M186.504 137.124l12.5-21.651v28.867z"/>
            <path fill="#ACE4D6" d="M186.504 137.124l12.5-21.651-25 14.433z"/>
            <path fill="#ACE4D6" d="M186.504 137.124l-12.5 21.65v-28.868z"/>
            <path fill="#1CC29F" d="M211.505 122.69l-12.5 21.65 25-14.433z"/>
            <path fill="#ACE4D6" d="M211.505 122.69l-12.5 21.65v-28.867zM186.504 165.992l12.5-21.651v28.868z"/>
            <path fill="#1CC29F" d="M186.504 165.992l12.5-21.651-25 14.434z"/>
            <path fill="#D7F1EB" d="M236.505 108.256l12.5-21.651v28.868zM236.505 108.256l-12.5 21.65 25-14.433z"/>
            <path fill="#ACE4D6" d="M236.505 108.256l-12.5 21.65V101.04z"/>
            <path fill="#1CC29F" d="M236.505 108.256l12.5-21.651-25 14.434z"/>
            <path fill="#ACE4D6" d="M211.505 93.822l12.5-21.651v28.868zM211.505 93.822l-12.5 21.65 25-14.433z"/>
            <path fill="#ACE4D6" d="M211.505 93.822l-12.5 21.65V86.606z"/>
            <path fill="#D7F1EB" d="M211.505 93.822l12.5-21.651-25 14.434zM211.505 122.69l12.5-21.651v28.868z"/>
            <path fill="#1CC29F" d="M211.505 122.69l12.5-21.651-25 14.434z"/>
            <path fill="#D7F1EB" d="M236.505 79.388l-12.5 21.65 25-14.433z"/>
            <path fill="#D7F1EB" d="M236.505 79.388l-12.5 21.65V72.172zM211.505 180.426l12.5-21.651-25 14.434zM211.505 180.426l12.5-21.651v28.868z"/>
            <path fill="#ACE4D6" d="M236.505 165.992l-12.5 21.65v-28.867z"/>
            <path fill="#1CC29F" d="M261.506 151.558l-12.5 21.651 25-14.434z"/>
            <path fill="#D7F1EB" d="M261.506 151.558l12.5-21.65v28.867z"/>
            <path fill="#ACE4D6" d="M261.506 151.558l12.5-21.65-25 14.433z"/>
            <path fill="#1CC29F" d="M261.506 151.558l-12.5 21.651v-28.868z"/>
            <path fill="#ACE4D6" d="M236.505 137.124l-12.5 21.651 25-14.434z"/>
            <path fill="#ACE4D6" d="M236.505 137.124l12.5-21.651v28.868z"/>
            <path fill="#ACE4D6" d="M236.505 137.124l12.5-21.651-25 14.434z"/>
            <path fill="#ACE4D6" d="M236.505 137.124l-12.5 21.651v-28.868z"/>
            <path fill="#D7F1EB" d="M261.506 122.69l-12.5 21.65 25-14.433z"/>
            <path fill="#1CC29F" d="M261.506 122.69l-12.5 21.65v-28.867z"/>
            <path fill="#ACE4D6" d="M236.505 165.992l12.5-21.651v28.868z"/>
            <path fill="#D7F1EB" d="M236.505 165.992l12.5-21.651-25 14.434z"/>
            <path fill="#ACE4D6" d="M286.506 108.256l-12.5 21.65 25-14.433z"/>
            <path fill="#D7F1EB" d="M286.506 108.256l12.5-21.651v28.868z"/>
            <path fill="#D7F1EB" d="M286.506 108.256l12.5-21.651-25 14.434z"/>
            <path fill="#1CC29F" d="M286.506 108.256l-12.5 21.65V101.04z"/>
            <path fill="#ACE4D6" d="M261.506 93.822l-12.5 21.65 25-14.433zM261.506 93.822l12.5-21.651v28.868z"/>
            <path fill="#ACE4D6" d="M261.506 93.822l12.5-21.651-25 14.434zM261.506 93.822l-12.5 21.65V86.606zM286.506 79.388l-12.5 21.65 25-14.433z"/>
            <path fill="#ACE4D6" d="M286.506 79.388l-12.5 21.65V72.172z"/>
            <path fill="#1CC29F" d="M261.506 122.69l12.5-21.651v28.868z"/>
            <path fill="#D7F1EB" d="M261.506 122.69l12.5-21.651-25 14.434zM199.004 0v28.868l12.5-21.651zM211.505 7.217l-12.5 21.651 25-14.434z"/>
            <path fill="#1CC29F" d="M236.505 21.651l-12.5 21.651V14.434z"/>
            <path fill="#ACE4D6" d="M236.505 21.651l-12.5 21.651 25-14.434zM211.505 36.085l12.5-21.65-25 14.433z"/>
            <path fill="#ACE4D6" d="M211.505 36.085l12.5-21.65v28.867zM261.506 64.954l-12.5 21.65 25-14.433z"/>
            <path fill="#1CC29F" d="M261.506 64.954l12.5-21.651V72.17z"/>
            <path fill="#1CC29F" d="M261.506 64.954l12.5-21.651-25 14.434zM261.506 64.954l-12.5 21.65V57.738z"/>
            <path fill="#ACE4D6" d="M236.505 50.52l-12.5 21.65 25-14.434z"/>
            <path fill="#ACE4D6" d="M236.505 50.52l12.5-21.652v28.869z"/>
            <path fill="#D7F1EB" d="M236.505 50.52l12.5-21.652-25 14.435z"/>
            <path fill="#ACE4D6" d="M236.505 50.52l-12.5 21.65V43.303z"/>
            <path fill="#D7F1EB" d="M261.506 36.085l-12.5 21.651 25-14.434z"/>
            <path fill="#ACE4D6" d="M261.506 36.085l-12.5 21.651V28.868z"/>
            <path fill="#1CC29F" d="M236.505 79.388l12.5-21.651v28.868z"/>
            <path fill="#D7F1EB" d="M236.505 79.388l12.5-21.651-25 14.434z"/>
            <path fill="#ACE4D6" d="M286.506 50.52l-12.5 21.65V43.303z"/>
            <path fill="#D7F1EB" d="M286.506 50.52l-12.5 21.65 25-14.434z"/>
            <path fill="#ACE4D6" d="M311.507 64.954l-12.5 21.65V57.738z"/>
            <path fill="#1CC29F" d="M311.507 64.954l-12.5 21.65 25-14.433z"/>
            <path fill="#ACE4D6" d="M286.506 79.388l12.5-21.651-25 14.434zM286.506 79.388l12.5-21.651v28.868zM311.507 93.822l-12.5 21.65 25-14.433zM311.507 93.822l12.5-21.651-25 14.434z"/>
            <path fill="#ACE4D6" d="M311.507 93.822l-12.5 21.65V86.606z"/>
            <path fill="#D7F1EB" d="M311.507 122.69l12.5-21.651-25 14.434z"/>
            <path fill="#ACE4D6" d="M336.507 137.124l12.5-21.651-25 14.433z"/>
            <path fill="#1CC29F" d="M361.508 122.69l-12.5 21.65v-28.867zM286.507 165.992l-12.5 21.651 25-14.434z"/>
            <path fill="#ACE4D6" d="M311.507 151.558l12.5-21.651v28.868z"/>
            <path fill="#D7F1EB" d="M311.507 151.558l-12.5 21.651 25-14.434z"/>
            <path fill="#ACE4D6" d="M186.504 194.86l12.5-21.651-25 14.434zM186.504 194.86l12.5-21.651v28.868z"/>
            <path fill="#1CC29F" d="M186.504 165.992l-12.5 21.65 25-14.433z"/>
            <path fill="#D7F1EB" d="M211.505 180.426l-12.5 21.65V173.21z"/>
            <path fill="#1CC29F" d="M211.505 180.426l-12.5 21.65 25-14.433z"/>
            <path fill="#ACE4D6" d="M236.505 194.86l-12.5 21.65v-28.867zM236.505 194.86l12.5-21.651-25 14.434zM236.505 194.86l12.5-21.651v28.868z"/>
            <path fill="#D7F1EB" d="M236.505 194.86l-12.5 21.65 25-14.433zM236.505 165.992l-12.5 21.65 25-14.433z"/>
            <path fill="#ACE4D6" d="M211.505 209.294l12.5-21.651-25 14.434z"/>
            <path fill="#D7F1EB" d="M211.505 209.294l12.5-21.651v28.868zM361.508 93.822l-12.5 21.65V86.606z"/>
            <path fill="#1CC29F" d="M361.508 93.822l-12.5 21.65 25-14.433z"/>
            <path fill="#ACE4D6" d="M386.509 108.256l-12.5 21.65V101.04z"/>
            <path fill="#ACE4D6" d="M374.008 129.907l25-14.434-12.5-7.216zM361.508 122.69l12.5-21.651-25 14.434zM361.508 122.69l12.5-21.651v28.868zM336.507 108.256l-12.5 21.65 25-14.433z"/>
            <path fill="#D7F1EB" d="M336.507 108.256l12.5-21.651v28.868z"/>
            <path fill="#D7F1EB" d="M336.507 108.256l12.5-21.651-25 14.434z"/>
            <path fill="#1CC29F" d="M336.507 108.256l-12.5 21.65V101.04z"/>
            <path fill="#ACE4D6" d="M311.507 93.822l12.5-21.651v28.868zM336.507 79.388l-12.5 21.65 25-14.433z"/>
            <path fill="#ACE4D6" d="M336.507 79.388l-12.5 21.65V72.172z"/>
            <path fill="#1CC29F" d="M311.507 122.69l12.5-21.652v28.868z"/>
            <path fill="#ACE4D6" d="M336.507 137.124l12.5-21.651v28.868z"/>
            <path fill="#ACE4D6" d="M336.507 137.124l-12.5 21.651 25-14.434z"/>
            <path fill="#ACE4D6" d="M336.507 137.124l-12.5 21.651v-28.868z"/>
            <path fill="#D7F1EB" d="M361.508 122.69l-12.5 21.65 25-14.433z"/>
            <path fill="#ACE4D6" d="M261.506 180.426l-12.5 21.65 25-14.433z"/>
            <path fill="#ACE4D6" d="M261.506 180.426l-12.5 21.65V173.21z"/>
            <path fill="#1CC29F" d="M136.503 194.86l12.5-21.651v28.868z"/>
            <path fill="#1CC29F" d="M136.503 194.86l12.5-21.651-25 14.434z"/>
            <path fill="#D7F1EB" d="M136.503 165.992l-12.5 21.65 25-14.433z"/>
            <path fill="#ACE4D6" d="M161.504 180.426l-12.5 21.65V173.21z"/>
            <path fill="#D7F1EB" d="M161.504 180.426l-12.5 21.65 25-14.433z"/>
            <path fill="#ACE4D6" d="M186.504 194.86l-12.5 21.65v-28.867z"/>
            <path fill="#1CC29F" d="M186.504 194.86l-12.5 21.65 25-14.433z"/>
            <path fill="#ACE4D6" d="M161.504 209.294l12.5-21.651-25 14.434zM161.504 209.294l12.5-21.651v28.868zM186.504 223.728l12.5-21.651v28.868zM211.505 209.294l-12.5 21.65 25-14.433z"/>
            <path fill="#ACE4D6" d="M211.505 209.294l-12.5 21.65v-28.867zM186.504 223.728l12.5-21.651-25 14.434z"/>
            <path fill="#137863" d="M36.5 137.124L24 158.774v-28.868z"/>
            <path fill="#1CC29F" d="M36.5 137.124L24 158.774l25-14.434z"/>
            <path fill="#137863" d="M61.501 151.558l-12.5 21.65v-28.867z"/>
            <path fill="#0C3C32" d="M61.501 151.558l-12.5 21.65 25-14.433zM36.5 165.992L49 144.34l-25 14.434zM36.5 165.992L49 144.34v28.868z"/>
            <path fill="#137863" d="M36.5 194.86L49 173.209v28.868z"/>
            <path fill="#1CC29F" d="M36.5 194.86L49 173.209l-25 14.434z"/>
            <path fill="#137863" d="M-1 202.077l25.001-14.434-12.501-7.217z"/>
            <path fill="#0C3C32" d="M-1 202.077l12.5-21.651-12.5-7.217z"/>
            <path fill="#1CC29F" d="M-1 202.077l12.5 7.217 12.501-21.651z"/>
            <path fill="#137863" d="M36.5 165.992L24 187.642l25-14.433z"/>
            <path fill="#1CC29F" d="M86.502 194.86l12.5-21.651v28.868z"/>
            <path fill="#137863" d="M86.502 194.86l12.5-21.651-25 14.434z"/>
            <path fill="#0C3C32" d="M61.502 180.426l-12.5 21.65 25-14.433z"/>
            <path fill="#137863" d="M61.502 180.426l-12.5 21.65V173.21z"/>
            <path fill="#1CC29F" d="M86.502 165.992l-12.5 21.65 25-14.433z"/>
            <path fill="#137863" d="M61.502 209.294l12.5-21.651-25 14.434zM111.503 209.294l12.5-21.651-25 14.434zM-1 173.208l25.001-14.434-12.501-7.216z"/>
            <path fill="#1CC29F" d="M11.5 151.558L24 129.907v28.868z"/>
            <path fill="#137863" d="M-1 144.34l12.5 7.218 12.501-21.652z"/>
            <path fill="#1CC29F" d="M-1 173.208l12.5-21.65L-1 144.34z"/>
            <path fill="#0C3C32" d="M-1 144.34l25.001-14.434L11.5 122.69z"/>
            <path fill="#0C3C32" d="M-1 144.34l12.5-21.65-12.5-7.217zM11.5 180.426L24 158.775v28.868z"/>
            <path fill="#137863" d="M-1 173.208l12.5 7.217 12.501-21.65z"/>
            <path fill="#1CC29F" d="M36.5 165.992L24 187.642v-28.867z"/>
            <path fill="#137863" d="M61.502 180.426l12.5-21.651v28.868z"/>
            <path fill="#1CC29F" d="M61.502 180.426l12.5-21.651-25 14.434z"/>
            <path fill="#0C3C32" d="M86.502 165.992l-12.5 21.65v-28.867z"/>
            <path fill="#137863" d="M-1 259.813l25.001-14.434-12.501-7.217z"/>
            <path fill="#1CC29F" d="M11.5 238.162L24 216.51v28.868z"/>
            <path fill="#137863" d="M-1 230.945l12.5 7.216 12.501-21.65z"/>
            <path fill="#1CC29F" d="M-1 259.813l12.5-21.651-12.5-7.216zM-1 230.945l25.001-14.434-12.501-7.217z"/>
            <path fill="#137863" d="M-1 230.945l12.5-21.65-12.5-7.218z"/>
            <path fill="#1CC29F" d="M36.5 194.86L24 216.51l25-14.433z"/>
            <path fill="#137863" d="M36.5 194.86L24 216.51v-28.867z"/>
            <path fill="#1CC29F" d="M11.5 209.294L24 187.643v28.868zM-1 288.681l12.501-21.65L-1 259.812z"/>
            <path fill="#1CC29F" d="M-1 259.813l12.501 7.217 12.5-21.651z"/>
            <path fill="#137863" d="M11.5 267.03L24 245.379v28.868z"/>
            <path fill="#1CC29F" d="M-1 288.681l25.001-14.434-12.5-7.217z"/>
            <path fill="#137863" d="M36.501 281.464l12.5-21.651-25 14.434zM36.501 281.464l12.5-21.651v28.868z"/>
            <path fill="#0C3C32" d="M36.501 252.596l-12.5 21.65V245.38z"/>
            <path fill="#1CC29F" d="M36.501 252.596l-12.5 21.65 25-14.433z"/>
            <path fill="#137863" d="M61.502 238.162l-12.5 21.651 25-14.434z"/>
            <path fill="#1CC29F" d="M61.502 238.162l12.5-21.65v28.867z"/>
            <path fill="#0C3C32" d="M61.502 238.162l12.5-21.65-25 14.433z"/>
            <path fill="#1CC29F" d="M61.502 238.162l-12.5 21.651v-28.868z"/>
            <path fill="#0C3C32" d="M36.501 223.728l-12.5 21.651 25-14.434z"/>
            <path fill="#1CC29F" d="M36.501 223.728l12.5-21.651v28.868z"/>
            <path fill="#0C3C32" d="M36.501 223.728l12.5-21.651-25 14.434z"/>
            <path fill="#137863" d="M36.501 223.728l-12.5 21.651v-28.868zM61.502 209.294l-12.5 21.65 25-14.433z"/>
            <path fill="#137863" d="M61.502 209.294l-12.5 21.65v-28.867z"/>
            <path fill="#1CC29F" d="M36.501 252.596l12.5-21.651v28.868z"/>
            <path fill="#137863" d="M36.501 252.596l12.5-21.651-25 14.434zM86.502 194.86l-12.5 21.65 25-14.433z"/>
            <path fill="#1CC29F" d="M86.502 194.86l-12.5 21.65v-28.867z"/>
            <path fill="#137863" d="M61.502 209.294l12.5-21.651v28.868z"/>
            <path fill="#1CC29F" d="M86.502 281.464l12.5-21.651v28.868z"/>
            <path fill="#137863" d="M86.502 281.464l12.5-21.651-25 14.434z"/>
            <path fill="#0C3C32" d="M61.502 267.03l-12.5 21.65 25-14.433z"/>
            <path fill="#1CC29F" d="M61.502 267.03l12.5-21.651v28.868z"/>
            <path fill="#0C3C32" d="M61.502 267.03l12.5-21.651-25 14.434z"/>
            <path fill="#1CC29F" d="M61.502 267.03l-12.5 21.65v-28.867zM86.502 252.596l-12.5 21.651 25-14.434z"/>
            <path fill="#137863" d="M86.502 252.596l-12.5 21.651V245.38zM111.503 238.162l12.5-21.65v28.867z"/>
            <path fill="#1CC29F" d="M111.503 238.162l-12.5 21.651 25-14.434z"/>
            <path fill="#137863" d="M111.503 238.162l-12.5 21.651v-28.868z"/>
            <path fill="#1CC29F" d="M111.503 238.162l12.5-21.65-25 14.433z"/>
            <path fill="#0C3C32" d="M86.502 223.728l12.5-21.651v28.868z"/>
            <path fill="#137863" d="M86.502 223.728l-12.5 21.651 25-14.434z"/>
            <path fill="#0C3C32" d="M86.502 223.728l-12.5 21.651v-28.868z"/>
            <path fill="#1CC29F" d="M86.502 223.728l12.5-21.651-25 14.434z"/>
            <path fill="#137863" d="M86.502 252.596l12.5-21.65v28.867z"/>
            <path fill="#1CC29F" d="M86.502 252.596l12.5-21.65-25 14.433z"/>
            <path fill="#137863" d="M111.503 209.294l-12.5 21.65 25-14.433z"/>
            <path fill="#1CC29F" d="M111.503 209.294l-12.5 21.65v-28.867z"/>
            <path fill="#0C3C32" d="M111.503 267.03l-12.5 21.651 25-14.434z"/>
            <path fill="#137863" d="M111.503 267.03l12.5-21.65v28.867z"/>
            <path fill="#0C3C32" d="M111.503 267.03l12.5-21.65-25 14.433z"/>
            <path fill="#137863" d="M111.503 267.03l-12.5 21.651v-28.868z"/>
            <path fill="#0C3C32" d="M36.501 281.464l-12.5 21.65v-28.867z"/>
            <path fill="#137863" d="M36.501 281.464l-12.5 21.65 25-14.433zM-1 288.681l12.501 7.217 12.5-21.65z"/>
            <path fill="#1CC29F" d="M11.5 295.898L24 274.247v28.868zM11.5 324.766l12.5-21.65v28.867z"/>
            <path fill="#1CC29F" d="M-1 317.55l12.501 7.215 12.5-21.65z"/>
            <path fill="#137863" d="M-1 317.55l25.001-14.435-12.5-7.216z"/>
            <path fill="#0C3C32" d="M-1 317.55l12.501-21.651L-1 288.682z"/>
            <path fill="#1CC29F" d="M36.501 310.332l12.5-21.651-25 14.434z"/>
            <path fill="#137863" d="M36.501 310.332l-12.5 21.651v-28.868z"/>
            <path fill="#1CC29F" d="M36.501 310.332l12.5-21.651v28.868z"/>
            <path fill="#137863" d="M61.502 295.898l-12.5 21.651v-28.868z"/>
            <path fill="#1CC29F" d="M61.502 295.898l-12.5 21.651 25-14.434zM61.502 295.898l12.5-21.651-25 14.434zM161.504 238.162l12.5-21.65v28.867z"/>
            <path fill="#137863" d="M161.504 238.162l12.5-21.65-25 14.433z"/>
            <path fill="#1CC29F" d="M161.504 238.162l-12.5 21.651v-28.868z"/>
            <path fill="#0C3C32" d="M136.503 223.728l-12.5 21.651 25-14.434z"/>
            <path fill="#137863" d="M136.503 223.728l12.5-21.651v28.868zM136.503 223.728l-12.5 21.651v-28.868z"/>
            <path fill="#0C3C32" d="M161.504 209.294l-12.5 21.65 25-14.433z"/>
            <path fill="#0C3C32" d="M161.504 209.294l-12.5 21.65v-28.867z"/>
            <path fill="#1CC29F" d="M136.503 252.596l12.5-21.65v28.867z"/>
            <path fill="#137863" d="M136.503 252.596l12.5-21.65-25 14.433zM136.503 194.86l-12.5 21.65 25-14.433z"/>
            <path fill="#1CC29F" d="M136.503 194.86l-12.5 21.65v-28.867z"/>
            <path fill="#0C3C32" d="M111.503 180.426l-12.5 21.65 25-14.433z"/>
            <path fill="#137863" d="M111.503 180.426l-12.5 21.65V173.21z"/>
            <path fill="#1CC29F" d="M111.503 209.294l12.5-21.651v28.868z"/>
            <path fill="#0C3C32" d="M186.504 223.728l-12.5 21.651 25-14.434z"/>
            <path fill="#137863" d="M186.504 223.728l-12.5 21.651v-28.868zM161.504 238.162l-12.5 21.651 25-14.434z"/>
            <path fill="#0C3C32" d="M136.503 223.728l12.5-21.651-25 14.434z"/>
            <path fill="#137863" d="M-1 346.417l25.001-14.433-12.5-7.218z"/>
            <path fill="#1CC29F" d="M-1 346.417l12.501-21.651L-1 317.55z"/>
            <path fill="#137863" d="M36.501 310.332l-12.5 21.651 25-14.434zM86.502 281.464l-12.5 21.65 25-14.433z"/>
            <path fill="#1CC29F" d="M86.502 281.464l-12.5 21.65v-28.867z"/>
            <path fill="#137863" d="M61.502 295.898l12.5-21.651v28.868zM136.503 252.596l-12.5 21.651 25-14.434z"/>
            <path fill="#1CC29F" d="M136.503 252.596l-12.5 21.651V245.38z"/>
            <path fill="#909599" d="M361.508 324.767l12.5-21.651v28.868z"/>
            <path fill="#52595F" d="M361.508 324.767l12.5-21.651-25 14.434z"/>
            <path fill="#C6CAD1" d="M336.507 310.332l12.5-21.65v28.868z"/>
            <path fill="#757A7E" d="M336.507 310.332l12.5-21.65-25 14.433z"/>
            <path fill="#C6CAD1" d="M361.508 295.898l-12.5 21.651 25-14.434z"/>
            <path fill="#52595F" d="M361.508 295.898l-12.5 21.651v-28.868z"/>
            <path fill="#C6CAD1" d="M286.507 223.728l12.5-21.651-25 14.434z"/>
            <path fill="#909599" d="M286.507 223.728l-12.5 21.651v-28.868z"/>
            <path fill="#52595F" d="M286.507 223.728l-12.5 21.651 25-14.434z"/>
            <path fill="#757A7E" d="M286.507 223.728l12.5-21.651v28.868z"/>
            <path fill="#C6CAD1" d="M311.507 238.162l12.5-21.65-25 14.433z"/>
            <path fill="#C6CAD1" d="M311.507 238.162l12.5-21.65v28.867z"/>
            <path fill="#52595F" d="M311.507 209.294l-12.5 21.65v-28.867z"/>
            <path fill="#757A7E" d="M311.507 209.294l-12.5 21.65 25-14.433z"/>
            <path fill="#C6CAD1" d="M336.507 194.86l-12.5 21.651 25-14.434z"/>
            <path fill="#909599" d="M336.507 194.86l12.5-21.65v28.867z"/>
            <path fill="#52595F" d="M336.507 194.86l12.5-21.65-25 14.433z"/>
            <path fill="#757A7E" d="M336.507 194.86l-12.5 21.651v-28.868z"/>
            <path fill="#C6CAD1" d="M311.507 180.426l-12.5 21.651 25-14.434z"/>
            <path fill="#757A7E" d="M311.507 180.426l12.5-21.65v28.867z"/>
            <path fill="#C6CAD1" d="M311.507 180.426l12.5-21.65-25 14.433zM311.507 180.426l-12.5 21.651V173.21z"/>
            <path fill="#757A7E" d="M336.507 165.992l-12.5 21.651 25-14.434z"/>
            <path fill="#C6CAD1" d="M336.507 165.992l-12.5 21.651v-28.868zM311.507 209.294l12.5-21.651v28.868z"/>
            <path fill="#757A7E" d="M311.507 209.294l12.5-21.651-25 14.434z"/>
            <path fill="#52595F" d="M361.508 151.558l12.5-21.65v28.867z"/>
            <path fill="#909599" d="M361.508 151.558l-12.5 21.651 25-14.434z"/>
            <path fill="#52595F" d="M361.508 151.558l-12.5 21.651v-28.868z"/>
            <path fill="#757A7E" d="M361.508 151.558l12.5-21.65-25 14.433z"/>
            <path fill="#909498" d="M336.507 165.992l12.5-21.65v28.867z"/>
            <path fill="#757A7E" d="M336.507 165.992l12.5-21.65-25 14.433zM336.507 223.728l-12.5 21.651v-28.868z"/>
            <path fill="#909599" d="M336.507 223.728l12.5-21.651-25 14.434z"/>
            <path fill="#52595F" d="M336.507 223.728l12.5-21.651v28.868z"/>
            <path fill="#909599" d="M336.507 223.728l-12.5 21.651 25-14.434z"/>
            <path fill="#C6CAD1" d="M361.508 238.162l12.5-21.65-25 14.433z"/>
            <path fill="#52595F" d="M361.508 238.162l12.5-21.65v28.867z"/>
            <path fill="#C6CAD1" d="M361.508 209.294l-12.5 21.651v-28.868z"/>
            <path fill="#52595F" d="M361.508 209.294l-12.5 21.651 25-14.434z"/>
            <path fill="#C6CAD1" d="M374.008 216.511l25-14.434-12.5-7.216z"/>
            <path fill="#909599" d="M386.509 194.86l12.5 7.217V173.21z"/>
            <path fill="#C6CAD1" d="M374.008 187.643l12.5 7.218 12.5-21.651z"/>
            <path fill="#757A7E" d="M386.509 194.86l-12.5 21.651v-28.868z"/>
            <path fill="#C6CAD1" d="M361.508 180.426l-12.5 21.651 25-14.434z"/>
            <path fill="#909599" d="M361.508 180.426l12.5-21.65v28.867z"/>
            <path fill="#C6CAD1" d="M361.508 180.426l12.5-21.65-25 14.433zM361.508 180.426l-12.5 21.651V173.21z"/>
            <path fill="#52595F" d="M374.008 187.643l25-14.434-12.5-7.216z"/>
            <path fill="#C6CAD1" d="M386.509 165.992l-12.5 21.651v-28.868z"/>
            <path fill="#909498" d="M361.508 209.294l12.5-21.65v28.867z"/>
            <path fill="#52595F" d="M361.508 209.294l12.5-21.65-25 14.433z"/>
            <path fill="#C6CAD1" d="M374.008 158.775l25-14.434-12.5-7.217z"/>
            <path fill="#C6CAD1" d="M386.509 137.124l-12.5 21.651v-28.868zM386.509 165.992l12.5 7.217v-28.868z"/>
            <path fill="#52595F" d="M374.008 158.775l12.5 7.217 12.5-21.65z"/>
            <path fill="#C6CAD1" d="M336.507 281.464l-12.5 21.651 25-14.434z"/>
            <path fill="#757A7E" d="M336.507 281.464l12.5-21.65v28.867z"/>
            <path fill="#909498" d="M336.507 281.464l12.5-21.65-25 14.433z"/>
            <path fill="#52595F" d="M336.507 252.596l-12.5 21.651 25-14.434z"/>
            <path fill="#909599" d="M361.508 267.03l12.5-21.65-25 14.433z"/>
            <path fill="#C6CAD1" d="M361.508 267.03l-12.5 21.651v-28.868z"/>
            <path fill="#52595F" d="M361.508 267.03l-12.5 21.651 25-14.434z"/>
            <path fill="#757A7E" d="M361.508 267.03l12.5-21.65v28.867z"/>
            <path fill="#C6CAD1" d="M374.008 274.248l12.5 7.216 12.5-21.65z"/>
            <path fill="#52595F" d="M386.509 281.464l-12.5 21.651v-28.868z"/>
            <path fill="#757A7E" d="M374.008 303.115l25-14.433-12.5-7.218z"/>
            <path fill="#C6CAD1" d="M386.509 281.464l12.5 7.218v-28.868z"/>
            <path fill="#757A7E" d="M361.508 295.898l12.5-21.65-25 14.433z"/>
            <path fill="#C6CAD1" d="M361.508 295.898l12.5-21.65v28.867z"/>
            <path fill="#52595F" d="M386.509 252.596l-12.5 21.651V245.38z"/>
            <path fill="#757A7E" d="M374.008 274.248l25-14.434-12.5-7.217z"/>
            <path fill="#C6CAD1" d="M374.008 245.38l25-14.435-12.5-7.217z"/>
            <path fill="#757A7E" d="M386.509 223.728l12.5 7.217v-28.868z"/>
            <path fill="#C6CAD1" d="M374.008 216.511l12.5 7.217 12.5-21.651z"/>
            <path fill="#C6CAD1" d="M386.509 223.728l-12.5 21.651v-28.867zM386.509 310.332l12.5 7.217v-28.867zM374.008 303.115l12.5 7.217 12.5-21.65z"/>
            <path fill="#C6CAD1" d="M386.509 310.332l-12.5 21.651v-28.868zM236.505 223.728l12.5-21.651-25 14.434z"/>
            <path fill="#52595F" d="M236.505 223.728l-12.5 21.651v-28.868z"/>
            <path fill="#909498" d="M236.505 223.728l-12.5 21.651 25-14.434z"/>
            <path fill="#757A7E" d="M236.505 223.728l12.5-21.651v28.868z"/>
            <path fill="#909599" d="M261.506 238.162l12.5-21.65-25 14.433z"/>
            <path fill="#C6CAD1" d="M261.506 238.162l12.5-21.65v28.867z"/>
            <path fill="#52595F" d="M261.506 209.294l-12.5 21.65v-28.867z"/>
            <path fill="#757A7E" d="M261.506 209.294l-12.5 21.65 25-14.433z"/>
            <path fill="#C6CAD1" d="M286.507 194.86l-12.5 21.65 25-14.433z"/>
            <path fill="#909599" d="M286.507 194.86l12.5-21.651v28.868z"/>
            <path fill="#52595F" d="M286.507 194.86l12.5-21.651-25 14.434z"/>
            <path fill="#757A7E" d="M286.507 194.86l-12.5 21.65v-28.867z"/>
            <path fill="#C6CAD1" d="M261.506 209.294l12.5-21.651v28.868z"/>
            <path fill="#757A7E" d="M261.506 209.294l12.5-21.651-25 14.434z"/>
            <path fill="#909599" d="M211.505 238.162l12.5-21.65v28.867z"/>
            <path fill="#52595F" d="M211.505 238.162l12.5-21.65-25 14.433z"/>
            <path fill="#C6CAD1" d="M261.506 267.03l12.5-21.65v28.867z"/>
            <path fill="#909599" d="M261.506 267.03l12.5-21.65-25 14.433z"/>
            <path fill="#52595F" d="M286.507 252.596l-12.5 21.651V245.38z"/>
            <path fill="#757A7E" d="M311.507 238.162l-12.5 21.651v-28.868z"/>
            <path fill="#C6CAD1" d="M311.507 238.162l-12.5 21.651 25-14.434zM286.507 252.596l12.5-21.65-25 14.433z"/>
            <path fill="#52595F" d="M286.507 252.596l12.5-21.65v28.867z"/>
            <path fill="#C6CAD1" d="M361.508 238.162l-12.5 21.651v-28.868zM361.508 238.162l-12.5 21.651 25-14.434z"/>
            <path fill="#52595F" d="M336.507 252.596l12.5-21.65-25 14.433z"/>
            <path fill="#909498" d="M336.507 252.596l12.5-21.65v28.867z"/>
            <path fill="#C6CAD1" d="M311.507 267.03l12.5-21.65v28.867z"/>
            <path fill="#909599" d="M311.507 267.03l12.5-21.65-25 14.433z"/>
            <path fill="#C6CAD1" d="M336.507 252.596l-12.5 21.651V245.38zM386.509 252.596l12.5 7.217v-28.867z"/>
            <path fill="#757A7E" d="M374.008 245.38l12.5 7.216 12.5-21.65z"/>
            <path fill="#909599" d="M261.506 238.162l-12.5 21.651v-28.868z"/>
            <path fill="#C6CAD1" d="M261.506 238.162l-12.5 21.651 25-14.434zM236.506 252.596l12.5-21.65-25 14.433z"/>
            <path fill="#52595F" d="M236.506 252.596l12.5-21.65v28.867z"/>
            <path fill="#909599" d="M286.507 281.464l12.5-21.65v28.867z"/>
            <path fill="#52595F" d="M286.507 281.464l12.5-21.65-25 14.433z"/>
            <path fill="#909599" d="M286.507 252.596l-12.5 21.651 25-14.434z"/>
            <path fill="#C6CAD1" d="M311.507 267.03l-12.5 21.651 25-14.434z"/>
            <path fill="#C6CAD1" d="M311.507 267.03l-12.5 21.651v-28.868zM374.008 331.984l25-14.434-12.5-7.217z"/>
            <path fill="#909498" d="M386.509 339.2l12.5 7.218V317.55z"/>
            <path fill="#52595F" d="M374.008 331.984l12.5 7.217 12.5-21.651z"/>
            <path fill="#C6CAD1" d="M386.509 137.124l12.5 7.217v-28.868z"/>
            <path fill="#909599" d="M374.008 129.907l12.5 7.217 12.5-21.651z"/>
            <path fill="#757A7E" d="M336.507 281.464l-12.5 21.651v-28.868z"/>
            <path fill="#909498" d="M311.507 295.898l12.5-21.65v28.867z"/>
            <path fill="#52595F" d="M311.507 295.898l12.5-21.65-25 14.433z"/>
            <path fill="#373B3F" d="M61.501 411.37l12.501 7.217V389.72z"/>
            <path fill="#757A7E" d="M61.502 411.37l12.5-21.65-25 14.434z"/>
            <path fill="#373B3F" d="M36.501 396.937l12.5-21.651v28.868z"/>
            <path fill="#373B3F" d="M24.001 418.587l25-14.434-12.5-7.216z"/>
            <path fill="#373B3F" d="M24.001 418.587l12.5-21.65-12.5-7.218z"/>
            <path fill="#373B3F" d="M36.501 396.937l12.5-21.651-25 14.433z"/>
            <path fill="#52595F" d="M61.502 382.502l-12.5 21.651 25-14.434z"/>
            <path fill="#52595F" d="M61.502 382.502l-12.5 21.651v-28.868zM11.501 411.37l12.5 7.217V389.72z"/>
            <path fill="#373B3F" d="M-1 404.153l12.501 7.218 12.5-21.651z"/>
            <path fill="#52595F" d="M-1 404.153l25.001-14.433-12.5-7.217z"/>
            <path fill="#92969A" d="M-1 404.153l12.501-21.65L-1 375.286z"/>
            <path fill="#373B3F" d="M36.501 368.068l-12.5 21.651 25-14.434z"/>
            <path fill="#909599" d="M36.501 368.068l12.5-21.65v28.867z"/>
            <path fill="#52595F" d="M36.501 368.068l12.5-21.65-25 14.433z"/>
            <path fill="#757A7E" d="M36.501 368.068l-12.5 21.651v-28.868z"/>
            <path fill="#92969A" d="M-1 375.285l25.001-14.434-12.5-7.217z"/>
            <path fill="#373B3F" d="M11.5 353.634l12.5-21.65v28.867z"/>
            <path fill="#52595F" d="M-1 346.417l12.501 7.217 12.5-21.65z"/>
            <path fill="#373B3F" d="M-1 375.285l12.501-21.65L-1 346.416zM36.501 339.2l-12.5 21.651 25-14.434z"/>
            <path fill="#909599" d="M36.501 339.2l-12.5 21.651v-28.868z"/>
            <path fill="#92969A" d="M11.5 382.502l12.5-21.65v28.867z"/>
            <path fill="#52595F" d="M-1 375.285l12.501 7.217 12.5-21.65z"/>
            <path fill="#373B3F" d="M111.503 353.634l12.5-21.65-25 14.433z"/>
            <path fill="#52595F" d="M111.503 353.634l-12.5 21.651v-28.868z"/>
            <path fill="#92969A" d="M111.503 353.634l-12.5 21.651 25-14.434z"/>
            <path fill="#757A7E" d="M111.503 353.634l12.5-21.65v28.867z"/>
            <path fill="#373B3F" d="M136.503 368.068l12.5-21.65-25 14.433z"/>
            <path fill="#52595F" d="M136.503 368.068l-12.5 21.651v-28.868z"/>
            <path fill="#373B3F" d="M136.503 368.068l-12.5 21.651 25-14.434z"/>
            <path fill="#757A7E" d="M136.503 368.068l12.5-21.65v28.867z"/>
            <path fill="#373B3F" d="M111.503 382.502l12.5-21.65-25 14.433z"/>
            <path fill="#373B3F" d="M111.503 382.502l12.5-21.65v28.867z"/>
            <path fill="#52595F" d="M136.503 339.2l-12.5 21.651v-28.868z"/>
            <path fill="#757A7E" d="M136.503 339.2l-12.5 21.651 25-14.434z"/>
            <path fill="#373B3F" d="M161.504 324.766l-12.5 21.651 25-14.434z"/>
            <path fill="#909599" d="M161.504 324.766l12.5-21.65v28.867z"/>
            <path fill="#52595F" d="M161.504 324.766l12.5-21.65-25 14.433z"/>
            <path fill="#757A7E" d="M161.504 324.766l-12.5 21.651V317.55z"/>
            <path fill="#373B3F" d="M136.503 310.332l-12.5 21.651 25-14.434z"/>
            <path fill="#757A7E" d="M136.503 310.332l12.5-21.651v28.868z"/>
            <path fill="#373B3F" d="M136.503 310.332l12.5-21.651-25 14.434z"/>
            <path fill="#52595F" d="M136.503 310.332l-12.5 21.651v-28.868z"/>
            <path fill="#757A7E" d="M161.504 295.898l-12.5 21.651 25-14.434z"/>
            <path fill="#373B3F" d="M161.504 295.898l-12.5 21.651v-28.868zM136.503 339.2l12.5-21.65v28.867z"/>
            <path fill="#757A7E" d="M136.503 339.2l12.5-21.65-25 14.433z"/>
            <path fill="#373B3F" d="M186.504 281.464l12.5-21.65v28.867z"/>
            <path fill="#909599" d="M186.504 281.464l-12.5 21.651 25-14.434z"/>
            <path fill="#373B3F" d="M186.504 281.464l-12.5 21.651v-28.868z"/>
            <path fill="#757A7E" d="M186.504 281.464l12.5-21.65-25 14.433z"/>
            <path fill="#92969A" d="M161.504 267.03l12.5-21.65v28.867z"/>
            <path fill="#373B3F" d="M161.504 267.03l-12.5 21.651 25-14.434z"/>
            <path fill="#92969A" d="M161.504 267.03l-12.5 21.651v-28.868z"/>
            <path fill="#373B3F" d="M161.504 267.03l12.5-21.65-25 14.433z"/>
            <path fill="#52595F" d="M161.504 295.898l12.5-21.65v28.867z"/>
            <path fill="#757A7E" d="M161.504 295.898l12.5-21.65-25 14.433z"/>
            <path fill="#52595F" d="M186.504 252.596l-12.5 21.651 25-14.434z"/>
            <path fill="#373B3F" d="M186.504 252.596l-12.5 21.651V245.38z"/>
            <path fill="#52595F" d="M61.502 324.766l12.5-21.65-25 14.433z"/>
            <path fill="#373B3F" d="M61.502 324.766l-12.5 21.651V317.55z"/>
            <path fill="#757A7E" d="M61.502 324.766l-12.5 21.651 25-14.434z"/>
            <path fill="#373B3F" d="M61.502 324.766l12.5-21.65v28.867zM36.501 339.2l12.5-21.65-25 14.433z"/>
            <path fill="#757A7E" d="M36.501 339.2l12.5-21.65v28.867z"/>
            <path fill="#52595F" d="M86.502 310.332l-12.5 21.651v-28.868z"/>
            <path fill="#909599" d="M86.502 310.332l12.5-21.651-25 14.434z"/>
            <path fill="#52595F" d="M86.502 310.332l12.5-21.651v28.868z"/>
            <path fill="#757A7E" d="M86.502 310.332l-12.5 21.651 25-14.434z"/>
            <path fill="#373B3F" d="M111.503 324.766l-12.5 21.651V317.55zM111.503 324.766l12.5-21.65-25 14.433z"/>
            <path fill="#757A7E" d="M111.503 324.766l12.5-21.65v28.867z"/>
            <path fill="#52595F" d="M111.503 324.766l-12.5 21.651 25-14.434z"/>
            <path fill="#373B3F" d="M111.503 295.898l-12.5 21.651v-28.868z"/>
            <path fill="#52595F" d="M111.503 295.898l-12.5 21.651 25-14.434z"/>
            <path fill="#373B3F" d="M86.502 339.2l12.5-21.65-25 14.433z"/>
            <path fill="#52595F" d="M86.502 339.2l12.5-21.65v28.867z"/>
            <path fill="#92969A" d="M136.503 281.464l-12.5 21.651 25-14.434z"/>
            <path fill="#52595F" d="M136.503 281.464l12.5-21.65v28.867z"/>
            <path fill="#373B3F" d="M136.503 281.464l12.5-21.65-25 14.433z"/>
            <path fill="#757A7E" d="M136.503 281.464l-12.5 21.651v-28.868z"/>
            <path fill="#373B3F" d="M111.503 295.898l12.5-21.651v28.868z"/>
            <path fill="#52595F" d="M111.503 295.898l12.5-21.651-25 14.434z"/>
            <path fill="#373B3F" d="M86.502 368.068l-12.5 21.651 25-14.434z"/>
            <path fill="#909599" d="M86.502 368.068l12.5-21.65v28.867z"/>
            <path fill="#52595F" d="M86.502 368.068l12.5-21.65-25 14.433z"/>
            <path fill="#757A7E" d="M86.502 368.068l-12.5 21.651v-28.868z"/>
            <path fill="#373B3F" d="M61.502 353.634l-12.5 21.651 25-14.434z"/>
            <path fill="#52595F" d="M61.502 353.634l12.5-21.65v28.867z"/>
            <path fill="#373B3F" d="M61.502 353.634l12.5-21.65-25 14.433z"/>
            <path fill="#52595F" d="M61.502 353.634l-12.5 21.651v-28.868z"/>
            <path fill="#373B3F" d="M86.502 339.2l-12.5 21.651 25-14.434z"/>
            <path fill="#909599" d="M86.502 339.2l-12.5 21.651v-28.868z"/>
            <path fill="#92969A" d="M61.502 382.502l12.5-21.65v28.867z"/>
            <path fill="#52595F" d="M61.502 382.502l12.5-21.65-25 14.433zM111.503 411.37l12.5 7.217V389.72z"/>
            <path fill="#757A7E" d="M111.503 411.37l12.5-21.65-25 14.434z"/>
            <path fill="#373B3F" d="M86.502 396.937l12.5-21.651v28.868z"/>
            <path fill="#373B3F" d="M74.002 418.587l25-14.434-12.5-7.216z"/>
            <path fill="#373B3F" d="M74.002 418.587l12.5-21.65-12.5-7.218z"/>
            <path fill="#52595F" d="M86.502 396.937l12.5-21.651-25 14.433zM111.503 382.502l-12.5 21.651 25-14.434z"/>
            <path fill="#92969A" d="M111.503 382.502l-12.5 21.651v-28.868z"/>
            <path fill="#909599" d="M161.504 411.37l12.5 7.218V389.72z"/>
            <path fill="#52595F" d="M161.504 411.37l12.5-21.65-25 14.434z"/>
            <path fill="#373B3F" d="M124.003 418.587l25-14.433-12.5-7.217z"/>
            <path fill="#52595F" d="M136.503 396.937l12.5-21.651v28.868z"/>
            <path fill="#909599" d="M136.503 396.937l12.5-21.651-25 14.433z"/>
            <path fill="#373B3F" d="M124.003 418.587l12.5-21.65-12.5-7.218z"/>
            <path fill="#909599" d="M161.504 382.502l-12.5 21.651 25-14.434z"/>
            <path fill="#757A7E" d="M161.504 382.502l-12.5 21.651v-28.868z"/>
            <path fill="#373B3F" d="M161.504 353.634l12.5-21.65-25 14.433z"/>
            <path fill="#909599" d="M161.504 353.634l-12.5 21.651v-28.868z"/>
            <path fill="#52595F" d="M161.504 353.634l-12.5 21.651 25-14.434z"/>
            <path fill="#757A7E" d="M161.504 353.634l12.5-21.65v28.867z"/>
            <path fill="#373B3F" d="M186.505 368.068l12.5-21.65-25 14.433z"/>
            <path fill="#757A7E" d="M186.505 368.068l-12.5 21.651v-28.868z"/>
            <path fill="#373B3F" d="M186.505 368.068l-12.5 21.651 25-14.434z"/>
            <path fill="#52595F" d="M186.505 368.068l12.5-21.65v28.867z"/>
            <path fill="#373B3F" d="M161.504 382.502l12.5-21.65-25 14.433z"/>
            <path fill="#757A7E" d="M161.504 382.502l12.5-21.65v28.867z"/>
            <path fill="#52595F" d="M186.505 339.2l-12.5 21.651v-28.868z"/>
            <path fill="#757A7E" d="M186.505 339.2l-12.5 21.651 25-14.434z"/>
            <path fill="#373B3F" d="M211.505 324.767l-12.5 21.65 25-14.433z"/>
            <path fill="#909599" d="M211.505 324.767l12.5-21.651v28.868z"/>
            <path fill="#52595F" d="M211.505 324.767l12.5-21.651-25 14.434z"/>
            <path fill="#757A7E" d="M211.505 324.767l-12.5 21.65V317.55z"/>
            <path fill="#373B3F" d="M186.504 310.332l-12.5 21.651 25-14.433z"/>
            <path fill="#757A7E" d="M186.504 310.332l12.5-21.65v28.868z"/>
            <path fill="#373B3F" d="M186.504 310.332l12.5-21.65-25 14.433z"/>
            <path fill="#373B3F" d="M186.504 310.332l-12.5 21.651v-28.868z"/>
            <path fill="#757A7E" d="M211.505 295.898l-12.5 21.651 25-14.434z"/>
            <path fill="#373B3F" d="M211.505 295.898l-12.5 21.651v-28.868zM186.505 339.2l12.5-21.65v28.867z"/>
            <path fill="#757A7E" d="M186.505 339.2l12.5-21.65-25 14.433z"/>
            <path fill="#52595F" d="M236.506 281.464l12.5-21.65v28.867z"/>
            <path fill="#909599" d="M236.506 281.464l-12.5 21.651 25-14.434z"/>
            <path fill="#52595F" d="M236.506 281.464l-12.5 21.651v-28.868z"/>
            <path fill="#757A7E" d="M236.506 281.464l12.5-21.65-25 14.433z"/>
            <path fill="#373B3F" d="M211.505 267.03l12.5-21.65v28.867z"/>
            <path fill="#92969A" d="M211.505 267.03l-12.5 21.651 25-14.434z"/>
            <path fill="#373B3F" d="M211.505 267.03l-12.5 21.651v-28.868z"/>
            <path fill="#52595F" d="M211.505 267.03l12.5-21.65-25 14.433z"/>
            <path fill="#92969A" d="M211.505 295.898l12.5-21.65v28.867z"/>
            <path fill="#757A7E" d="M211.505 295.898l12.5-21.65-25 14.433z"/>
            <path fill="#52595F" d="M236.506 252.596l-12.5 21.651 25-14.434z"/>
            <path fill="#92969A" d="M236.506 252.596l-12.5 21.651V245.38z"/>
            <path fill="#909599" d="M361.508 411.37l12.5 7.218V389.72z"/>
            <path fill="#52595F" d="M361.509 411.371l12.5-21.65-25 14.433z"/>
            <path fill="#373B3F" d="M324.007 418.588l25.001-14.434-12.5-7.217z"/>
            <path fill="#757A7E" d="M336.507 396.937l12.5-21.651v28.868z"/>
            <path fill="#373B3F" d="M336.507 396.937l12.5-21.651-25 14.434z"/>
            <path fill="#373B3F" d="M324.007 418.588l12.5-21.651-12.5-7.217z"/>
            <path fill="#757A7E" d="M361.508 382.503l-12.5 21.65 25-14.433z"/>
            <path fill="#373B3F" d="M361.508 382.503l-12.5 21.65v-28.867zM386.51 368.07l12.498 7.215v-28.867z"/>
            <path fill="#909599" d="M374.008 389.72l25-14.434-12.499-7.216z"/>
            <path fill="#52595F" d="M386.509 368.069l-12.5 21.65v-28.867z"/>
            <path fill="#757A7E" d="M374.008 360.851l12.501 7.218 12.5-21.65z"/>
            <path fill="#373B3F" d="M361.508 353.635l12.5-21.651v28.868z"/>
            <path fill="#373B3F" d="M361.508 353.635l-12.5 21.65 25-14.433z"/>
            <path fill="#373B3F" d="M361.508 353.635l-12.5 21.65v-28.867z"/>
            <path fill="#373B3F" d="M361.508 353.635l12.5-21.651-25 14.434z"/>
            <path fill="#52595F" d="M361.508 382.503l12.5-21.651v28.868z"/>
            <path fill="#757A7E" d="M361.508 382.503l12.5-21.651-25 14.434z"/>
            <path fill="#52595F" d="M374.008 360.851l25-14.433-12.5-7.217z"/>
            <path fill="#52595F" d="M386.509 339.2l-12.5 21.652v-28.868z"/>
            <path fill="#757A7E" d="M211.505 353.634l-12.5 21.651v-28.868z"/>
            <path fill="#909599" d="M211.505 353.634l12.5-21.65-25 14.433z"/>
            <path fill="#52595F" d="M211.505 353.634l12.5-21.65v28.867z"/>
            <path fill="#909599" d="M211.505 353.634l-12.5 21.651 25-14.434z"/>
            <path fill="#52595F" d="M236.506 368.068l-12.5 21.651v-28.868z"/>
            <path fill="#373B3F" d="M236.506 368.068l12.5-21.65-25 14.433z"/>
            <path fill="#52595F" d="M236.506 368.068l12.5-21.65v28.867z"/>
            <path fill="#373B3F" d="M236.506 368.068l-12.5 21.651 25-14.434zM236.506 339.2l-12.5 21.652v-28.868z"/>
            <path fill="#52595F" d="M236.506 339.2l-12.5 21.652 25-14.434zM211.505 382.502l12.5-21.65-25 14.433z"/>
            <path fill="#92969A" d="M211.505 382.502l12.5-21.65v28.867z"/>
            <path fill="#373B3F" d="M261.506 324.767l-12.5 21.65 25-14.433z"/>
            <path fill="#909599" d="M261.506 324.767l12.5-21.651v28.868z"/>
            <path fill="#373B3F" d="M261.506 324.767l12.5-21.651-25 14.434z"/>
            <path fill="#757A7E" d="M261.506 324.767l-12.5 21.65V317.55z"/>
            <path fill="#373B3F" d="M236.506 310.332l-12.5 21.651 25-14.433z"/>
            <path fill="#909599" d="M236.506 310.332l12.5-21.65v28.868z"/>
            <path fill="#373B3F" d="M236.506 310.332l12.5-21.65-25 14.433z"/>
            <path fill="#52595F" d="M236.506 310.332l-12.5 21.651v-28.868zM261.506 295.898l-12.5 21.651 25-14.434z"/>
            <path fill="#373B3F" d="M261.506 295.898l-12.5 21.651v-28.868z"/>
            <path fill="#92969A" d="M236.506 339.2l12.5-21.65v28.868z"/>
            <path fill="#52595F" d="M236.506 339.2l12.5-21.65-25 14.434z"/>
            <path fill="#373B3F" d="M286.507 281.464l-12.5 21.651 25-14.434z"/>
            <path fill="#757A7E" d="M286.507 281.464l-12.5 21.651v-28.868z"/>
            <path fill="#373B3F" d="M261.506 267.03l-12.5 21.651 25-14.434z"/>
            <path fill="#373B3F" d="M261.506 267.03l-12.5 21.651v-28.868zM261.506 295.898l12.5-21.65v28.867z"/>
            <path fill="#52595F" d="M261.506 295.898l12.5-21.65-25 14.433z"/>
            <path fill="#757A7E" d="M211.505 411.37l12.5 7.218V389.72z"/>
            <path fill="#92969A" d="M211.505 411.37l12.5-21.65-25 14.434z"/>
            <path fill="#52595F" d="M174.004 418.588l25-14.434-12.5-7.217z"/>
            <path fill="#373B3F" d="M186.505 396.937l12.5-21.651v28.868z"/>
            <path fill="#909599" d="M186.505 396.937l12.5-21.651-25 14.433z"/>
            <path fill="#373B3F" d="M174.004 418.588l12.5-21.651-12.5-7.217z"/>
            <path fill="#52595F" d="M211.505 382.502l-12.5 21.651 25-14.434z"/>
            <path fill="#909599" d="M211.505 382.502l-12.5 21.651v-28.868zM236.506 396.937l12.5-21.651-25 14.433z"/>
            <path fill="#373B3F" d="M224.005 418.588l12.5-21.651-12.5-7.217z"/>
            <path fill="#52595F" d="M224.005 418.588l25-14.434-12.5-7.217z"/>
            <path fill="#757A7E" d="M236.506 396.937l12.5-21.651v28.868z"/>
            <path fill="#373B3F" d="M261.506 411.37l12.5-21.65-25 14.434z"/>
            <path fill="#373B3F" d="M261.506 411.37l12.5 7.218V389.72z"/>
            <path fill="#52595F" d="M261.506 382.502l-12.5 21.651v-28.868z"/>
            <path fill="#757A7E" d="M261.506 382.502l-12.5 21.651 25-14.434z"/>
            <path fill="#373B3F" d="M286.507 368.069l-12.5 21.65 25-14.433z"/>
            <path fill="#909599" d="M286.507 368.069l12.5-21.651v28.868z"/>
            <path fill="#52595F" d="M286.507 368.069l12.5-21.651-25 14.434z"/>
            <path fill="#757A7E" d="M286.507 368.069l-12.5 21.65v-28.867z"/>
            <path fill="#373B3F" d="M261.506 353.635l-12.5 21.65 25-14.433z"/>
            <path fill="#757A7E" d="M261.506 353.635l12.5-21.651v28.868z"/>
            <path fill="#373B3F" d="M261.506 353.635l12.5-21.651-25 14.434z"/>
            <path fill="#52595F" d="M261.506 353.635l-12.5 21.65v-28.867z"/>
            <path fill="#92969A" d="M286.507 339.2l-12.5 21.652 25-14.434z"/>
            <path fill="#373B3F" d="M286.507 339.2l-12.5 21.652v-28.868zM261.506 382.502l12.5-21.65v28.867z"/>
            <path fill="#757A7E" d="M261.506 382.502l12.5-21.65-25 14.433z"/>
            <path fill="#52595F" d="M311.507 324.767l12.5-21.651v28.868z"/>
            <path fill="#909599" d="M311.507 324.767l-12.5 21.65 25-14.433z"/>
            <path fill="#373B3F" d="M311.507 324.767l-12.5 21.65V317.55z"/>
            <path fill="#757A7E" d="M311.507 324.767l12.5-21.651-25 14.434z"/>
            <path fill="#373B3F" d="M286.507 310.332l12.5-21.65v28.868z"/>
            <path fill="#52595F" d="M286.507 310.332l-12.5 21.651 25-14.433z"/>
            <path fill="#373B3F" d="M286.507 310.332l-12.5 21.651v-28.868z"/>
            <path fill="#909599" d="M286.507 310.332l12.5-21.65-25 14.433z"/>
            <path fill="#52595F" d="M286.507 339.2l12.5-21.65v28.868z"/>
            <path fill="#757A7E" d="M286.507 339.2l12.5-21.65-25 14.434z"/>
            <path fill="#52595F" d="M311.507 295.898l-12.5 21.651 25-14.434z"/>
            <path fill="#909599" d="M311.507 295.898l-12.5 21.651v-28.868z"/>
            <path fill="#52595F" d="M274.007 418.588l12.5-21.651-12.5-7.217z"/>
            <path fill="#909599" d="M286.507 396.937l12.5-21.651-25 14.433z"/>
            <path fill="#52595F" d="M286.507 396.937l12.5-21.651v28.868z"/>
            <path fill="#757A7E" d="M274.007 418.588l25-14.434-12.5-7.217z"/>
            <path fill="#373B3F" d="M311.507 411.37l12.5-21.65-25 14.434z"/>
            <path fill="#373B3F" d="M311.507 411.37l12.5 7.218V389.72zM311.507 382.503l-12.5 21.65v-28.867z"/>
            <path fill="#52595F" d="M311.507 382.503l-12.5 21.65 25-14.433z"/>
            <path fill="#92969A" d="M336.507 368.069l-12.5 21.65 25-14.433z"/>
            <path fill="#52595F" d="M336.507 368.069l12.5-21.651v28.868z"/>
            <path fill="#373B3F" d="M336.507 368.069l12.5-21.651-25 14.434z"/>
            <path fill="#757A7E" d="M336.507 368.069l-12.5 21.65v-28.867z"/>
            <path fill="#373B3F" d="M311.507 353.635l-12.5 21.65 25-14.433z"/>
            <path fill="#373B3F" d="M311.507 353.635l12.5-21.651v28.868z"/>
            <path fill="#373B3F" d="M311.507 353.635l12.5-21.651-25 14.434z"/>
            <path fill="#373B3F" d="M311.507 353.635l-12.5 21.65v-28.867z"/>
            <path fill="#52595F" d="M336.507 339.2l-12.5 21.652 25-14.434z"/>
            <path fill="#92969A" d="M336.507 339.2l-12.5 21.652v-28.868z"/>
            <path fill="#373B3F" d="M311.507 382.503l12.5-21.651v28.868z"/>
            <path fill="#52595F" d="M311.507 382.503l12.5-21.651-25 14.434z"/>
            <path fill="#373B3F" d="M361.508 324.767l-12.5 21.65 25-14.433z"/>
            <path fill="#757A7E" d="M361.508 324.767l-12.5 21.65V317.55z"/>
            <path fill="#373B3F" d="M336.507 310.332l-12.5 21.651 25-14.433z"/>
            <path fill="#373B3F" d="M336.507 310.332l-12.5 21.651v-28.868z"/>
            <path fill="#92969A" d="M336.507 339.2l12.5-21.65v28.868z"/>
            <path fill="#52595F" d="M336.507 339.2l12.5-21.65-25 14.434z"/>
            <path fill="#373B3F" d="M374.008 418.588l25-14.434-12.499-7.217z"/>
            <path fill="#757A7E" d="M386.51 396.937l12.498 7.217v-28.868z"/>
            <path fill="#373B3F" d="M374.008 389.72l12.501 7.217 12.5-21.651z"/>
            <path fill="#373B3F" d="M374.008 418.588l12.501-21.651-12.5-7.217zM211.505 238.162l-12.5 21.651 25-14.434z"/>
            <path fill="#757A7E" d="M211.505 238.162l-12.5 21.651v-28.868z"/>
            <path fill="#92969A" d="M186.504 252.596l12.5-21.65v28.867z"/>
            <path fill="#52595F" d="M186.504 252.596l12.5-21.65-25 14.433z"/>
            <path fill="#909599" d="M57.335 418.587h16.666l-12.5-7.217z"/>
            <path fill="#52595F" d="M49.001 418.587h8.334l4.166-7.217-12.5-7.217z"/>
            <path fill="#52595F" d="M40.668 418.587h8.333v-14.434z"/>
            <path fill="#757A7E" d="M24.001 418.587h16.667l8.333-14.434z"/>
            <path fill="#92969A" d="M7.334 418.587h16.667l-12.5-7.217z"/>
            <path fill="#757A7E" d="M-1 418.587h8.334l4.167-7.217L-1 404.153z"/>
            <path fill="#909599" d="M107.337 418.587h16.666l-12.5-7.216z"/>
            <path fill="#52595F" d="M99.003 418.587h8.334l4.166-7.216-12.5-7.218z"/>
            <path fill="#92969A" d="M90.67 418.587h8.332v-14.434z"/>
            <path fill="#757A7E" d="M74.002 418.587H90.67l8.333-14.434z"/>
            <path fill="#373B3F" d="M157.337 418.587h16.667l-12.5-7.216z"/>
            <path fill="#757A7E" d="M149.004 418.587h8.333l4.167-7.216-12.5-7.218z"/>
            <path fill="#373B3F" d="M140.67 418.587h8.334v-14.434z"/>
            <path fill="#52595F" d="M124.003 418.587h16.667l8.334-14.434z"/>
            <path fill="#373B3F" d="M357.342 418.587h16.665l-12.499-7.216z"/>
            <path fill="#757A7E" d="M349.008 418.587h8.334l4.166-7.216-12.5-7.217z"/>
            <path fill="#373B3F" d="M340.674 418.587h8.334v-14.433z"/>
            <path fill="#757A7E" d="M324.008 418.587h16.666l8.334-14.433z"/>
            <path fill="#373B3F" d="M207.338 418.587h16.667l-12.5-7.216z"/>
            <path fill="#757A7E" d="M199.004 418.587h8.334l4.167-7.216-12.5-7.218z"/>
            <path fill="#92969A" d="M190.671 418.587h8.333v-14.434z"/>
            <path fill="#52595F" d="M174.005 418.587h16.666l8.333-14.434z"/>
            <path fill="#373B3F" d="M249.006 418.587h8.334l4.166-7.216-12.5-7.217z"/>
            <path fill="#757A7E" d="M257.34 418.587h16.666l-12.5-7.216z"/>
            <path fill="#373B3F" d="M224.005 418.587h16.667l8.333-14.433z"/>
            <path fill="#52595F" d="M240.673 418.587h8.333v-14.433z"/>
            <path fill="#373B3F" d="M299.007 418.587h8.334l4.166-7.216-12.5-7.217z"/>
            <path fill="#52595F" d="M307.34 418.587h16.666l-12.5-7.216z"/>
            <path fill="#373B3F" d="M274.007 418.587h16.667l8.333-14.433z"/>
            <path fill="#52595F" d="M290.674 418.587h8.333v-14.433z"/>
            <path fill="#373B3F" d="M390.676 418.587h8.332v-14.433z"/>
            <path fill="#757A7E" d="M374.01 418.587h16.666l8.332-14.433z"/>
        </g>
    </g>
</svg>
