<svg xmlns="http://www.w3.org/2000/svg" width="239" height="79" viewBox="0 0 239 79">
    <g fill="none" fill-rule="evenodd">
        <path fill="#1CC29F" d="M27.85 47.834l8.808-5.075L0 21.64v20.857C2.747 41.02 6.208 40.25 10.17 40.25c8.63 0 14.09 3.657 17.678 7.585M11.676 76.946c3.672 0 6.44-1.08 6.44-3.844 0-2.823-3.551-3.904-7.945-4.985-3.27-.836-7.025-1.675-10.17-3.257v5.359c2.647 4.265 7.041 6.727 11.675 6.727"/>
        <path fill="#52595F" d="M73.317 63.879v-42.24L36.658 42.76z"/>
        <path fill="#ACE4D6" d="M73.316 21.64L36.658.52 0 21.64l36.658 21.119z"/>
        <path fill="#373B3F" d="M36.658 42.759l-8.809 5.075-9.442 5.44c-2.413-1.914-5.481-3.295-8.296-3.295-3.43 0-5.176 1.14-5.176 3.243 0 2.433 2.388 3.592 5.696 4.532a63.96 63.96 0 0 0 2.188.573c7.283 1.742 17.034 3.964 17.034 13.934 0 2.093-.442 4.179-1.41 6.082h44.873V63.879l-36.658-21.12z"/>
        <path fill="#FFF" d="M12.82 58.327a63.96 63.96 0 0 1-2.19-.573c-3.307-.94-5.695-2.1-5.695-4.532 0-2.103 1.745-3.243 5.176-3.243 2.815 0 5.883 1.381 8.296 3.296l9.442-5.441c-3.588-3.928-9.049-7.585-17.678-7.585-3.963 0-7.424.769-10.17 2.247V64.86c3.145 1.582 6.9 2.42 10.17 3.256 4.393 1.082 7.945 2.163 7.945 4.986 0 2.763-2.769 3.844-6.44 3.844-4.634 0-9.028-2.462-11.676-6.727v8.124h28.444c.967-1.903 1.409-3.99 1.409-6.082 0-9.97-9.75-12.193-17.034-13.934"/>
        <g fill="#373B3F">
            <path d="M91.837 59.161c-1.653-.48-2.982-1.104-3.984-1.872l1.76-3.904c.96.704 2.1 1.27 3.424 1.696a12.84 12.84 0 0 0 3.967.64c1.474 0 2.56-.218 3.264-.656.705-.437 1.056-1.019 1.056-1.744 0-.533-.207-.977-.623-1.328-.415-.352-.95-.634-1.6-.849-.651-.212-1.531-.447-2.64-.703-1.707-.405-3.104-.81-4.193-1.216a6.827 6.827 0 0 1-2.8-1.952c-.778-.896-1.167-2.09-1.167-3.584 0-1.301.352-2.48 1.056-3.536.703-1.056 1.764-1.893 3.185-2.512 1.417-.618 3.15-.929 5.2-.929 1.428 0 2.825.172 4.19.513 1.366.342 2.56.832 3.585 1.472l-1.6 3.936c-2.069-1.173-4.14-1.76-6.208-1.76-1.452 0-2.523.235-3.216.704-.694.47-1.04 1.088-1.04 1.856s.4 1.34 1.2 1.711c.8.375 2.022.743 3.664 1.105 1.706.406 3.104.811 4.192 1.216a6.962 6.962 0 0 1 2.8 1.92c.778.875 1.169 2.06 1.169 3.552 0 1.28-.358 2.448-1.074 3.504-.714 1.056-1.785 1.894-3.216 2.512-1.43.619-3.167.928-5.215.928-1.77 0-3.483-.24-5.136-.72zm29.856-4.8c.822-.864 1.233-2.02 1.233-3.472 0-1.45-.411-2.608-1.233-3.472-.82-.864-1.872-1.296-3.151-1.296-1.28 0-2.332.432-3.152 1.296-.822.864-1.233 2.022-1.233 3.472 0 1.451.411 2.608 1.233 3.472.82.864 1.872 1.296 3.152 1.296s2.331-.432 3.151-1.296zm2.08-11.232a7.936 7.936 0 0 1 3.089 3.104c.747 1.334 1.12 2.886 1.12 4.656 0 1.771-.373 3.323-1.12 4.655a7.938 7.938 0 0 1-3.089 3.105c-1.311.736-2.767 1.104-4.367 1.104-2.197 0-3.926-.693-5.185-2.08v8.032h-4.992V42.281h4.769v1.984c1.238-1.493 3.04-2.24 5.408-2.24 1.6 0 3.056.368 4.367 1.104zm7.535 16.369V35.754h4.992v23.744h-4.992zm9.632 0V42.282h4.992v17.216h-4.992zm.256-20.416a2.598 2.598 0 0 1-.864-1.985c0-.789.29-1.45.864-1.984.577-.533 1.324-.8 2.241-.8s1.664.256 2.239.769c.576.512.864 1.15.864 1.919 0 .832-.288 1.52-.864 2.064-.575.544-1.322.817-2.239.817-.917 0-1.664-.268-2.24-.8zm20.48 19.583c-.49.363-1.092.635-1.808.817a9.202 9.202 0 0 1-2.256.271c-2.047 0-3.631-.522-4.752-1.568-1.12-1.045-1.68-2.58-1.68-4.608v-7.456h-2.655v-3.84h2.656v-3.808h4.992v3.809h4.287v3.84h-4.287v7.391c0 .726.186 1.286.559 1.68.374.395.902.592 1.585.592.789 0 1.46-.213 2.015-.64l1.344 3.52zm30.655-16.383l-6.241 17.216h-4.8l-3.872-10.69-4 10.69h-4.8l-6.207-17.216h4.704l4.064 11.648 4.224-11.648h4.223l4.097 11.648 4.192-11.648h4.416zm2.336 17.216V42.282h4.992v17.216h-4.992zm.256-20.416a2.598 2.598 0 0 1-.864-1.985c0-.789.289-1.45.864-1.984.577-.533 1.323-.8 2.24-.8.917 0 1.665.256 2.24.769a2.46 2.46 0 0 1 .864 1.919c0 .832-.288 1.52-.864 2.064-.575.544-1.323.817-2.24.817-.917 0-1.663-.268-2.24-.8zm10.975 20.143c-1.366-.352-2.453-.794-3.264-1.328l1.664-3.585c.769.492 1.697.892 2.784 1.2a11.63 11.63 0 0 0 3.2.464c2.113 0 3.169-.521 3.169-1.568 0-.49-.29-.841-.864-1.055-.576-.213-1.463-.394-2.656-.545-1.408-.212-2.572-.458-3.49-.735a5.403 5.403 0 0 1-2.382-1.472c-.672-.704-1.008-1.706-1.008-3.008 0-1.088.314-2.053.944-2.896.628-.842 1.547-1.498 2.752-1.968 1.204-.469 2.63-.704 4.27-.704 1.217 0 2.428.134 3.634.4 1.204.267 2.201.635 2.99 1.104l-1.662 3.552c-1.516-.853-3.168-1.28-4.961-1.28-1.067 0-1.867.15-2.4.448-.533.299-.8.683-.8 1.152 0 .534.288.907.864 1.12.577.214 1.494.416 2.752.608 1.408.235 2.56.485 3.456.752a5.183 5.183 0 0 1 2.336 1.456c.66.704.992 1.686.992 2.944a4.55 4.55 0 0 1-.96 2.848c-.64.832-1.573 1.478-2.8 1.936-1.227.459-2.682.688-4.368.688a16.76 16.76 0 0 1-4.192-.528zm20.481-12.464c-.769.64-1.238 1.515-1.408 2.624h8.48c-.172-1.088-.64-1.957-1.408-2.608-.769-.65-1.708-.976-2.817-.976-1.13 0-2.08.32-2.847.96zm11.68 5.536h-13.026c.236 1.067.79 1.91 1.664 2.528.876.62 1.964.928 3.265.928.897 0 1.69-.133 2.384-.4.694-.266 1.34-.688 1.936-1.264l2.656 2.88c-1.621 1.856-3.989 2.784-7.105 2.784-1.94 0-3.657-.378-5.15-1.136-1.494-.757-2.646-1.808-3.457-3.152-.81-1.344-1.216-2.869-1.216-4.576 0-1.685.4-3.205 1.2-4.56a8.405 8.405 0 0 1 3.297-3.168c1.397-.757 2.96-1.136 4.688-1.136 1.684 0 3.21.363 4.576 1.087a7.963 7.963 0 0 1 3.216 3.121c.778 1.355 1.167 2.928 1.167 4.72 0 .064-.03.512-.095 1.344z"/>
        </g>
    </g>
</svg>
